<svg width="1924" height="666" viewBox="0 0 1924 666" fill="none" xmlns="http://www.w3.org/2000/svg">
<path d="M0 51.782C156.626 27.262 146.845 13.0821 235.089 28.0821C256.634 31.7421 391.063 60.0821 466.329 61.6121C479.657 61.8821 652.416 64.792 656.194 65.482C700.336 72.572 796.706 79.022 842.01 78.5721C846.38 78.4021 850.729 78.2321 855.068 78.0821C872.444 77.5021 889.8 77.2921 906.986 78.8221C911.505 78.9821 916.004 79.262 920.514 79.732C927.107 80.412 933.531 81.5421 939.864 82.9021C946.197 84.2621 952.44 85.822 958.653 87.252C996.051 97.132 1034.89 100.152 1075.36 96.3821C1084.22 95.9021 1093.14 95.4521 1102.2 95.1121C1112.55 94.1021 1122.91 93.1021 1132.56 89.6721C1135.31 88.7822 1138.06 87.8321 1140.79 86.8921C1158.12 80.9221 1175.88 75.6721 1193.66 70.5721C1211.9 65.3321 1231.2 60.5721 1250.89 61.4021C1270.93 62.2421 1290.3 66.8122 1310.28 67.9422C1327 68.8922 1343.9 67.342 1360.02 63.762C1362.78 63.152 1365.49 62.472 1368.16 61.742C1370.83 61.012 1373.48 60.2222 1376.1 59.4222C1414.17 46.7922 1452.89 29.3822 1491.5 18.1822C1555.96 -0.517839 1563.95 -1.00795 1604.34 0.572055C1630.28 1.59205 1698.85 32.372 1715.73 35.242C1835.09 55.522 1861.81 46.1621 1924 38.6221V665.512H0" fill="black"/>
</svg>
