<svg width="223" height="4403" viewBox="0 0 223 4403" fill="none" xmlns="http://www.w3.org/2000/svg">
<path d="M220.686 1737.71C219.355 1745.29 210.877 1764.57 210.757 1767.8C210.607 1771.94 216.542 1788.18 217.543 1794.8C226.762 1855.51 207.854 1921.85 193.05 1980.29C209.616 2042.73 226.401 2108.68 215.972 2173.59C215.081 2179.16 210.577 2188.24 210.827 2192.79C211.047 2196.71 217.603 2209.93 219.075 2216.67C234.889 2289.37 188.806 2369.79 210.547 2439.2C211.508 2442.25 217.453 2452.8 217.453 2453.7C217.453 2454.55 210.977 2465.08 209.686 2468.86C186.184 2537.53 221.467 2629.68 189.837 2698.96C216.172 2763.95 195.252 2836.19 203.87 2903.6C205.682 2917.79 209.195 2932.39 217.473 2944.26C181.69 3020.8 236.991 3103.87 218.484 3183.79C217.073 3189.89 210.857 3202.17 210.527 3205.39C210.226 3208.29 213.86 3215.36 214.63 3219.42C229.494 3298.05 204.231 3378.74 181.8 3453.51C202.389 3519.55 227.042 3599.24 217.783 3668.98C216.792 3676.44 210.627 3694.38 210.777 3698.86C210.877 3702.11 216.342 3712.09 217.533 3716.48C239.594 3797.65 181.069 3882.32 217.723 3960.01C181.249 4035.77 224.089 4128.57 189.977 4205.31C221.477 4274.9 187.665 4364.02 209.335 4433.93C210.777 4438.56 215.741 4446.41 216.332 4450H0V0H217.513C182.611 77.4919 237.412 159.448 218.514 240.401C217.083 246.546 211.778 257.086 211.578 261.77C211.367 266.613 215.001 272.42 215.942 277.829C229.184 354.446 204.001 435.885 181.81 508.535C204.641 580.846 227.703 658.069 215.922 734.626C215.121 739.817 210.657 752.426 210.767 755.449C210.837 757.388 216.392 768.724 217.533 773.059C235.44 841.174 198.686 911.298 205.612 980.218C206.563 989.664 217.553 1014.43 217.433 1016.33C217.363 1017.43 209.566 1031.13 208.124 1036.21C188.286 1105.9 220.496 1192.42 190.298 1261.63C221.697 1329.95 187.625 1422.56 209.386 1490.46C210.887 1495.16 217.373 1504 217.653 1505.62C218.004 1507.69 212.388 1516.81 211.257 1520.52C189.867 1590.65 233.178 1666.75 220.696 1737.71L220.686 1737.71Z" fill="white"/>
</svg>
