<svg width="96" height="95" viewBox="0 0 96 95" fill="none" xmlns="http://www.w3.org/2000/svg">
<path d="M95.4181 2.18359L95.3079 2.26318C95.2878 2.31318 95.338 2.39359 95.338 2.43359C95.3279 2.43359 95.2177 2.50318 95.2077 2.51318C95.2177 2.51318 95.1476 2.35351 95.1476 2.35351C95.1977 2.32351 95.2377 2.29343 95.2678 2.27343L95.2377 2.12353C94.9671 2.20353 94.6966 2.37316 94.4461 2.49316C94.386 2.48316 94.3759 2.44355 94.3659 2.39355C94.3859 2.31355 94.4261 2.33316 94.4762 2.24316C94.5062 2.18316 94.406 2.16326 94.4361 2.09326C94.4661 2.04326 94.5162 2.02316 94.5663 1.99316C94.5463 1.98316 94.5062 1.8833 94.5062 1.8833C94.396 1.9033 94.2858 1.93339 94.1956 1.98339C94.1555 1.95339 94.1154 1.91353 94.0854 1.87353C94.0352 1.84353 94.0052 1.93357 93.945 1.91357C93.8949 1.85357 93.8749 1.8332 93.8248 1.7832L93.7146 1.8833C93.7146 1.8833 93.7546 1.96318 93.7546 2.01318C93.3338 2.30318 93.0532 1.77318 92.5923 2.01318C92.5522 1.91318 92.4319 1.82337 92.4119 1.71337L92.2816 1.77343C92.2916 1.83343 92.3217 1.88312 92.3217 1.95312C92.1313 1.95312 91.9509 1.89355 91.7404 1.89355C92.021 1.48355 90.7684 1.61337 90.8085 1.71337C90.6281 1.91337 90.4378 1.97324 90.2674 1.82324C90.2073 1.79324 90.1872 1.88328 90.1171 1.86328C90.077 1.82328 90.057 1.77339 90.0069 1.73339C90.0069 1.75339 89.8966 1.79345 89.8966 1.79345C89.8966 1.86345 89.9067 1.94316 89.9067 1.99316C89.8866 2.02316 89.9067 1.77345 89.8866 1.79345C89.8465 1.76345 89.7363 1.96334 89.6962 1.92334C89.596 1.99334 89.586 1.75345 89.4658 1.79345C89.4758 1.74345 89.3555 1.97312 89.3856 1.95312C89.3756 1.94312 89.3054 1.82324 89.3054 1.82324C89.3054 1.82324 89.2854 2.51343 89.2754 2.52343C89.2653 2.48343 89.2352 3.14355 89.2352 3.14355H89.1751C89.0348 3.14355 88.8645 2.05314 88.7442 1.97314C88.7442 1.97314 88.7543 1.82353 88.7843 1.87353L88.7442 1.77343L88.634 1.51318C88.634 1.51318 88.6641 1.42332 88.6741 1.40332L88.4236 1.3833C88.3735 1.3833 88.2332 1.32324 88.2332 1.32324C88.2131 1.25324 88.153 1.23357 88.143 1.16357C88.143 1.10357 88.0027 1.00345 87.9726 1.04345C87.9325 1.00345 87.4415 1.0332 87.4114 1.0332C87.211 1.0032 87.1609 0.883414 87.0708 1.00341C87.0708 1.00341 87.0307 0.943336 86.9806 0.923336C86.4194 -0.106664 83.9142 0.00341377 83.9142 0.00341377C82.3609 0.113414 80.7276 1.43359 80.7276 1.43359C79.515 2.28359 77.9618 5.65324 77.7915 6.07324C77.6111 6.51324 76.7894 7.6133 76.1681 8.1333C75.2362 8.9033 74.2241 9.68343 73.1819 10.2734C71.799 11.0634 70.3961 11.8634 68.913 12.4434C66.7886 13.2734 64.574 13.9032 62.3394 14.3232C59.9243 14.7832 57.4692 14.9436 55.0041 14.9136C52.5189 14.9136 50.0338 14.5832 47.5586 14.3232C41.5261 13.7432 32.7077 9.97318 21.0535 9.76318C20.4322 9.76318 16.0331 9.61357 7.8761 12.9136C7.50532 13.1436 6.79388 13.2133 6.28282 13.0933C6.46319 13.3233 6.3229 13.3636 6.0323 13.3936C6.36298 13.7436 6.37301 13.7134 6.22269 14.0234C5.22061 14.2434 6.35294 13.1933 5.3208 13.9233C5.49115 14.1733 5.43103 14.1731 5.3208 14.4731C5.22059 14.3631 5.07027 14.2934 4.87988 14.4634C4.77967 14.9434 5.45106 14.5032 4.94 14.9932C4.61933 15.1032 4.22851 15.3434 4.23853 14.9434C3.99803 15.3434 4.12834 15.3732 3.83773 15.7632C3.64734 14.7832 3.74753 15.9235 3.25651 15.8135C3.35671 15.6535 3.30664 15.3034 3.0962 15.4434C2.92585 15.6834 3.31661 16.0133 2.7354 15.8833C2.81557 16.0933 2.75545 16.3132 2.7354 16.5332C2.51495 16.3932 2.29454 16.5732 2.28451 16.2432C2.22439 16.5232 1.72334 16.8332 1.33252 16.7432C1.46279 16.9232 1.36255 16.8235 1.17216 16.8535C1.39261 17.1035 1.23232 17.1536 1.15216 17.4136C0.530864 17.6336 1.18221 16.7936 0.580961 17.4136C0.721253 17.6636 0.651119 17.5736 0.530869 17.9136L0.621022 17.9731C0.260272 18.1531 -0.381068 18.6433 0.300348 18.8833C-0.0604017 18.6833 0.621027 18.1832 0.751298 18.2632C0.490756 18.6032 0.270298 18.7536 0.500777 19.1836C0.540861 18.9836 0.781358 17.9632 1.56298 18.0532C2.80557 16.6232 4.03811 17.0434 3.98801 16.7534C4.76963 16.5134 5.54127 15.2433 8.27695 15.1733C8.20681 14.5833 8.57756 14.8936 9.19885 14.6636C9.19885 14.6636 8.04649 15.4834 7.29493 16.1934C7.10454 16.1534 6.41307 16.2034 6.82392 16.2734L6.22269 16.5332C6.25276 16.5932 6.4131 16.6333 6.67365 16.5933C5.95214 17.1833 5.0302 17.6731 4.13834 18.2231C3.3968 18.6831 5.92208 17.7433 8.86821 16.1133C7.40517 17.8633 4.41896 18.2332 3.85779 20.2632C3.07617 20.3832 -0.300872 23.2434 0.831482 22.4634C0.430649 22.9934 1.71328 21.5731 2.04396 22.2231C2.22434 22.1731 2.38468 22.1833 2.42476 22.4033C2.59511 21.9933 2.11412 21.6736 2.55504 21.4336C2.96589 22.3836 2.83562 21.5433 3.36672 21.6133C3.29657 21.7933 3.37676 22.1331 3.57718 21.9731C3.71747 21.7331 3.34667 21.3433 3.98801 21.4233C3.85774 21.2233 3.73752 21.0135 3.70746 20.7935C3.97802 20.9035 4.09824 20.8233 4.17841 21.1533C4.23853 20.4533 4.6995 20.5933 5.25064 20.6733C5.08029 20.4933 5.26068 20.4536 5.45107 20.3936C5.17049 20.1536 4.9801 19.9133 5.02018 19.6533C5.62143 19.4033 5.25064 20.6532 5.75168 19.9932C5.421 19.6132 5.41097 18.5532 5.81181 18.5532C5.65147 18.7732 5.70157 18.9033 5.93205 18.9233C5.61139 19.0033 5.61139 19.9334 5.93205 19.7134C5.96211 19.0734 7.18466 19.2335 6.93413 18.3335C7.55543 18.7235 7.86607 18.2335 8.05646 18.1035C8.68778 19.3535 9.69989 16.5735 10.702 17.1035C10.3312 16.1735 11.4335 16.0234 12.3554 15.9634C13.8485 14.4134 16.965 13.1136 18.0272 12.9136C17.8669 13.0136 17.6665 13.2736 17.446 13.9336C23.7692 11.6236 36.5657 19.0733 50.4045 22.8633L49.2922 25.8335C47.5987 24.9635 42.478 22.2733 37.9486 21.8433C34.8221 21.5533 32.6577 22.5431 30.2827 23.7231C30.2527 24.0231 30.3027 24.2533 30.423 24.4033C25.0217 28.9833 23.4385 38.1733 24.7612 46.5933C25.3825 50.5933 28.1984 54.7032 31.4051 57.0532C33.309 58.0232 39.5219 60.8836 47.769 54.9136C48.0697 58.5336 47.9795 61.9131 49.4325 64.4731C49.4926 64.3331 49.4526 64.1335 49.6129 64.1435C49.0517 64.8535 50.3244 65.7234 50.2643 65.0034C50.635 65.2534 49.9235 65.5132 50.5849 65.5132L50.615 64.8433C51.0559 65.3133 50.7753 64.5934 51.126 64.5234C51.4968 64.7734 50.8955 64.9132 51.2763 65.0332C51.5669 64.8132 51.5068 64.2333 52.1382 64.3833C52.0279 63.8033 52.4688 63.6835 52.1682 63.3735C52.9899 63.3435 53.2905 62.3535 53.2404 61.8936C53.531 61.8936 53.7515 61.9533 53.9018 62.0933C54.0922 61.0533 53.8116 59.9533 52.9899 59.3633C53.3807 59.1533 53.6112 59.8236 53.6713 59.3936C53.4509 59.3236 53.3306 59.1635 53.3406 58.8735C53.6312 58.8235 53.7715 59.1433 53.8517 58.9033C53.4709 58.9433 53.8718 57.0532 54.0722 57.5532C53.9319 55.9132 53.9519 53.9133 53.9018 52.1733C59.8842 47.3233 62.1991 40.0533 71.7188 39.3833C75.9075 44.3133 73.8533 48.2032 71.0575 55.3232C70.8771 55.3932 70.6967 55.8735 70.4262 55.8135C68.3118 60.8735 67.1995 62.8535 61.0767 77.2934C60.5456 78.7534 59.1527 80.8333 58.8321 81.9233C57.4292 83.7333 56.9982 87.1334 56.6275 88.7934C56.7978 88.0535 55.7256 90.4933 56.5273 90.3433C56.4371 90.5833 56.3769 90.7933 56.6776 90.9033C56.7076 90.6933 56.7377 90.6834 57.0183 90.7534C56.9882 91.4734 55.1444 90.7935 55.9661 91.5635C55.7156 91.1435 56.5573 91.0836 56.4771 91.4136C55.8158 91.7636 56.0964 92.3935 55.5152 92.3735C55.5953 92.6535 55.6354 92.7234 56.1365 92.2534C56.0062 92.2534 55.916 93.3434 55.9461 93.2534C56.2667 93.2734 56.407 94.0933 56.5072 94.0933H56.5373C56.407 94.0933 56.2667 93.5636 56.1365 93.6836C56.3068 93.6836 56.5674 92.8534 56.6976 92.7734C56.6375 92.7234 56.5874 92.1532 56.5774 92.0132C56.7678 92.0032 56.9982 91.8535 57.0984 91.8535L57.1486 91.0933C57.1486 91.0933 57.1485 91.0532 57.1585 91.0532C57.1786 91.0032 57.1585 90.9533 57.1585 90.9033L57.1786 90.6333C57.2387 90.5433 57.2187 90.5736 57.1585 90.6636C57.0183 90.3536 56.5874 90.1936 57.0383 89.9136C57.0483 90.1736 56.9982 90.4133 57.359 90.3433C57.5193 89.8433 57.2889 89.5735 57.0684 89.0635C57.6095 89.0335 58.0304 88.4333 57.4392 88.1533C57.6596 88.1533 57.7999 88.3336 57.9302 88.4336C57.9402 88.1936 57.8701 87.9635 57.7799 87.8335C57.9603 87.8335 57.9803 87.9632 58.1206 88.0132C58.1506 87.5932 58.2508 87.2032 58.0604 86.9932C59.4133 86.4032 58.9523 84.6032 60.0847 84.2632C59.3932 83.6132 61.708 81.6033 60.9164 81.3433C61.247 81.3233 61.0467 81.3035 61.3473 81.2934C61.2671 80.7635 60.8863 80.8531 61.6679 80.4531C61.4976 80.8231 61.4776 81.6732 61.6479 81.7632C61.9786 81.5932 61.698 81.0734 61.9285 81.2534C61.9686 81.0634 61.9886 81.6635 62.149 81.5835C61.9185 83.8335 59.0024 88.2233 59.5535 90.1733C58.9222 89.5933 58.1406 94.4336 58.4312 93.6636C58.4713 94.2236 58.6717 92.1335 59.293 92.8535C58.8621 92.7935 58.7319 93.0632 58.7619 93.5132C58.8621 93.5732 59.3932 93.9532 59.4433 93.5332C59.2128 93.1432 58.8922 93.8534 58.9523 93.1934C59.1126 92.8933 59.5535 92.7735 59.794 93.0434C59.7339 92.6334 59.3732 92.4834 59.3331 92.0234C60.0747 92.5634 59.4333 91.7834 59.8542 91.5434C59.8942 91.7234 60.1047 91.9531 60.1748 91.7231C60.1648 91.4331 59.7039 91.3332 60.215 91.0532C60.0145 90.9532 59.8241 90.8534 59.7139 90.6934C59.9644 90.6334 60.3352 89.9634 60.7761 89.7334C60.5657 89.6734 60.6659 89.5335 60.7761 89.3935C60.4655 89.3635 60.2149 89.2632 60.1047 89.0332C60.4253 88.4932 60.756 89.7133 60.7961 88.8833C60.3853 88.7733 59.8642 87.9236 60.1648 87.6836C60.1448 87.9536 60.245 88.0336 60.4253 87.9136C60.2249 88.1536 60.6558 88.9135 60.7961 88.5434C60.5155 88.0235 61.197 87.9733 60.5957 87.3833C61.217 87.3433 62.65 83.1731 62.7302 82.9731C63.7623 83.6231 63.0108 81.4032 63.9728 81.2632C63.2513 80.7232 64.1431 80.4433 63.5118 80.1533C64.3034 80.2533 63.9627 79.7134 64.6341 79.5234C64.6341 79.2634 64.6341 79.1332 64.6341 79.0332C64.6541 79.0032 64.6742 78.9836 64.6942 78.9136C64.4938 78.8236 64.3134 78.7232 64.1932 78.5732C64.8946 78.2932 65.3256 78.4132 64.9047 77.5732C64.9648 77.5732 65.2454 77.7334 65.2354 77.7534C65.3857 76.3834 64.594 76.5732 66.007 75.9932C65.9568 75.8932 65.9568 75.8833 65.9268 75.8433C65.8967 75.8433 65.8767 75.8032 65.8666 75.7432C65.8666 75.7432 65.8666 75.7434 65.8666 75.7334C65.9669 75.0234 66.7585 75.6735 66.7185 75.1035C66.5882 74.4435 66.0872 75.6332 66.0471 75.0732C66.488 75.1532 66.8788 73.7036 67.2195 72.9336C67.2596 72.3736 68.1214 71.7635 67.7706 71.2934C67.9911 71.4734 68.3819 71.4836 68.6024 71.6636C69.0032 70.7236 68.7226 69.3936 69.6946 69.1636C69.7748 69.4136 69.0232 69.5533 69.5042 69.6533C69.8048 69.3833 70.8571 67.9232 70.0554 68.3032C70.4963 68.1032 69.7547 67.9834 70.0654 67.9834C70.2558 68.2734 70.4662 68.1933 70.6867 68.1133C70.6466 68.1133 70.5865 68.0832 70.4963 68.0132C70.3661 67.9432 70.3159 67.9431 70.2859 67.9731C70.2859 67.9331 70.2859 67.9132 70.2358 67.8232C70.2658 67.8232 70.2558 67.8035 70.2558 67.7934C70.4462 67.9835 70.7769 67.8933 70.6566 67.8433C70.9472 67.2833 71.0875 67.0033 70.7869 66.6533C71.2278 66.2333 71.0274 65.9233 71.318 65.6733C71.328 65.7233 71.318 65.7635 71.338 65.8135C71.338 65.6835 71.3581 65.5435 71.4283 65.3735C71.6187 65.3435 71.9092 65.4231 71.9393 65.2231C71.7389 65.2631 71.3681 65.0535 71.779 65.0434C71.809 65.2434 72.0395 65.1233 72.1097 64.8833C71.8792 64.4633 72.5005 63.8036 73.3322 63.9336C73.1819 62.9736 73.6929 63.7035 73.6929 63.1035C73.6428 63.1035 73.5927 63.0334 73.5326 63.0034C73.4825 63.0734 73.4224 63.1032 73.3222 63.0332C73.3322 63.1232 73.222 63.2834 72.8612 63.2734C72.8011 62.8634 72.6608 63.4334 72.5205 62.9434C72.781 63.0034 72.9614 62.9031 73.1017 62.7231C73.0216 62.6631 72.9414 62.5835 72.8713 62.5635C73.0116 62.4335 73.1218 62.4434 73.232 62.5034C73.5126 61.9534 73.5928 61.1131 74.0036 61.2231C73.7832 61.0431 74.0837 60.9431 73.6929 60.7031C74.4345 59.8031 75.4767 59.6535 75.1159 58.5635C75.617 59.1635 75.5167 59.2833 76.0178 59.1133C75.6069 59.0533 75.5969 58.6533 75.4767 58.3433C75.4366 58.3433 75.3965 58.3432 75.3765 58.2432C75.3765 58.2232 75.3865 58.2234 75.3965 58.2134C75.3664 58.1634 75.3464 58.1132 75.3063 58.0732C75.3664 58.0532 75.4165 58.0735 75.4566 58.0835C75.6069 57.8635 75.9276 58.3331 76.0679 57.9531C75.3264 57.9531 76.1781 57.4632 75.7573 57.2632H76.2683C76.3184 56.6332 76.1982 54.7732 76.6792 54.5732C76.599 54.7732 76.5289 55.3033 76.4888 55.8433C76.8796 55.4433 77.1401 55.5333 77.5109 55.3833C76.8996 55.0633 77.4006 55.0835 76.9497 54.3535C77.1601 53.9535 77.571 54.7231 77.7915 54.2231C76.6391 53.6431 77.591 53.4131 78.0219 52.7031C78.2524 52.7531 78.2825 52.9932 78.503 53.0532C78.5731 52.7232 78.042 52.7235 77.9418 52.5435C78.2324 52.2735 78.2524 51.2332 78.2524 51.0532C78.2524 50.9532 78.6132 50.9832 78.4929 51.0332C81.3589 38.5032 74.0136 34.0034 69.5343 33.9634C63.4016 33.9034 55.9561 41.1535 52.6893 44.8335C52.6893 44.8335 53.4309 38.9134 55.2747 32.2734C56.0663 29.4234 57.5093 25.7733 58.0604 24.3833L58.4312 24.4531C67.6103 26.8931 75.7673 11.1332 83.5033 5.74316C83.5535 5.78316 84.5054 5.43332 84.5455 5.40332C84.6056 5.45332 85.0666 5.33316 85.257 5.24316C85.3271 5.26316 86.2591 4.88351 86.3793 4.85351C86.4595 4.85351 87.0808 4.52339 87.171 4.48339C87.181 4.28339 88.4336 3.95349 88.2933 4.08349C88.3334 4.12349 91.8006 3.81326 91.8206 3.84326C92.0311 3.76326 92.5922 3.76326 92.6223 3.84326C92.7025 3.81326 92.9931 3.80326 93.0131 3.84326C93.1133 3.81326 93.3738 3.81326 93.4239 3.84326C93.5141 3.80326 94.7066 3.62336 94.9672 3.44336C94.9672 3.38336 95.5684 2.30314 95.368 2.22314L95.4181 2.18359ZM1.59307 17.4932C1.6532 17.4032 1.71332 17.3232 1.71332 17.2432C1.71332 17.2832 1.73333 17.3335 1.74335 17.3735C1.69325 17.4035 1.64318 17.4532 1.59307 17.4932ZM1.69326 17.1636C1.6632 17.1036 1.60307 17.0534 1.50286 16.9834C1.74336 16.6734 1.59307 16.5535 1.8436 16.8535C1.69328 16.9635 1.67322 17.0533 1.69326 17.1533V17.1636ZM4.44899 20.1636C4.85984 19.8236 4.23854 20.0336 4.62936 19.6636C4.70952 19.9536 4.32877 19.8633 4.92 20.1133C4.81979 20.2833 4.68949 20.3736 4.44899 20.1636ZM42.0872 50.3135C41.6764 50.3835 40.504 50.4636 39.6522 50.1636C37.7783 49.5336 35.8142 46.5433 35.5837 44.4233C35.4034 42.8433 35.5436 40.2535 36.656 38.6235C36.8764 38.3235 37.137 38.0733 37.4276 37.8633C37.4276 37.8933 37.4276 37.9036 37.4576 37.9336L37.4877 37.8735C37.4877 37.8735 41.025 36.1033 45.845 36.1333C46.1357 36.1533 46.4663 36.1636 46.8271 36.1636C46.5465 38.8236 47.5586 47.9332 47.6087 47.9932C47.6087 47.9932 43.2797 50.3835 42.0872 50.3135ZM56.5373 90.3335C56.3068 90.3035 56.5373 89.8933 56.6675 89.8633C56.6675 90.0233 56.5974 90.1835 56.5373 90.3335ZM60.4454 89.3535C60.4755 89.7235 60.2951 89.8933 59.9343 89.8433C60.0746 89.3333 59.3632 89.6234 59.6337 88.9834C59.8241 89.1834 59.9243 89.4733 60.4554 89.3433L60.4454 89.3535ZM70.1957 67.6533C70.1957 67.6533 70.2358 67.6931 70.2458 67.7231C70.1456 67.6831 70.0153 67.6633 70.1957 67.6533ZM78.1222 51.0234L78.6934 51.0435C78.523 51.1035 78.2925 51.1434 78.1222 51.0234ZM78.4628 50.2134C78.7635 50.2634 78.8737 50.3334 78.8036 50.7134C78.503 50.5434 78.2224 51.1934 78.1322 50.6934C77.6813 50.4234 78.8136 51.1934 78.4628 50.2134Z" fill="#B3B3B3"/>
</svg>
