<svg width="43" height="26" viewBox="0 0 43 26" fill="none" xmlns="http://www.w3.org/2000/svg">
<path d="M42.1283 6.94244C42.5483 7.52244 42.2483 8.75244 41.6083 8.75244C39.7683 8.75244 37.8883 8.43244 36.0383 8.31244C34.1283 8.19244 32.1283 8.45244 30.2783 7.77244C30.5883 7.35244 31.2682 7.26244 31.6882 7.22244C34.6082 6.94244 37.7283 6.90244 40.6683 6.79244C41.0883 6.78244 41.7683 6.43244 42.1283 6.93244V6.94244Z" fill="white"/>
<path d="M30.7383 10.8422C31.5983 10.9022 32.4582 10.9022 33.3282 10.9422C35.5782 11.0422 37.7883 11.0022 40.0483 10.9422C40.4683 10.9422 40.8883 10.7522 41.3583 10.8322C42.7883 11.0522 42.5583 12.7922 41.1083 12.8922C39.2883 13.0222 36.4783 12.7322 34.6383 12.4622C33.9683 12.3622 31.2082 11.7622 30.8282 11.2122C30.7382 11.0722 30.7283 11.0222 30.7483 10.8322L30.7383 10.8422Z" fill="white"/>
<path d="M30.2883 3.71276H33.3683C35.9183 3.69276 38.5782 2.75276 41.0682 2.51276C41.6382 2.46276 42.7083 2.40276 42.7483 3.45276C42.8083 4.93276 40.6283 4.42276 39.9183 4.47276C37.3283 4.63276 34.7383 5.02276 32.1383 4.57276C31.5483 4.47276 30.6883 4.32276 30.2783 3.72276L30.2883 3.71276Z" fill="white"/>
<path d="M22.3886 3.55235C22.8786 3.91235 23.8287 4.56235 24.2787 5.03235C24.4187 5.18235 24.6386 5.81235 24.7586 5.92235C30.2786 11.2223 27.5787 21.2624 20.7787 24.5024C14.6887 27.4024 3.44856 25.7424 1.55856 18.5324C1.48856 18.2624 1.26867 17.3823 1.28867 17.1723C1.28867 17.0324 1.40856 16.8823 1.55856 16.9123C2.03856 17.6823 2.25861 18.5723 2.72861 19.3524C6.49861 25.7323 18.2786 25.8823 22.8086 20.3023C30.5886 10.7023 18.7186 -1.17765 7.63864 3.34235C2.88864 5.28235 2.94864 8.10235 0.638642 11.7123C0.548642 11.8524 0.318622 12.3223 0.118622 12.2823C-0.111378 12.2423 0.0585929 11.3624 0.0885929 11.1824C1.57859 1.68235 11.6586 -2.90765 20.3786 1.97235C21.2786 2.47235 21.6987 3.00235 22.4087 3.53235L22.3886 3.55235Z" fill="white"/>
<path d="M12.0679 8.34279C14.5479 8.02279 17.088 9.93279 17.678 12.1828C18.898 16.8228 13.098 19.9628 9.78797 16.1628C9.54797 15.8928 8.52787 14.5428 8.93787 14.2728C9.53787 13.8828 9.80788 14.8428 10.0679 15.1428C12.2779 17.6628 16.4479 16.1028 15.6279 12.8528C15.2279 11.2528 13.1379 10.0428 11.5079 10.7128C10.8679 10.9728 10.4479 11.8728 9.61793 11.6028C9.17793 11.2828 9.30799 10.8928 9.42799 10.4528C9.74799 9.29279 10.8479 8.51279 12.0679 8.35279V8.34279Z" fill="white"/>
<path d="M18.8081 6.55261C19.1281 6.80261 19.7382 7.26262 20.0282 7.58262C20.1182 7.68262 20.2581 8.12261 20.3381 8.20261C23.9081 11.8926 22.1582 18.8726 17.7682 21.1326C13.8282 23.1526 6.55813 21.9926 5.33813 16.9826C5.28813 16.7926 5.1482 16.1826 5.1582 16.0326C5.1582 15.9326 5.23813 15.8326 5.33813 15.8526C5.64813 16.3926 5.78813 17.0026 6.08813 17.5526C8.52813 21.9926 16.1481 22.1026 19.0681 18.2126C24.0981 11.5326 16.4182 3.26261 9.25817 6.41261C6.18817 7.76261 6.22814 9.73261 4.72814 12.2426C4.66814 12.3426 4.51818 12.6726 4.38818 12.6426C4.23818 12.6126 4.34816 12.0026 4.36816 11.8826C5.33816 5.27261 11.8482 2.07262 17.4882 5.47262C18.0682 5.82262 18.3382 6.19261 18.7982 6.55261H18.8081Z" fill="white"/>
</svg>
