<svg width="223" height="4329" viewBox="0 0 223 4329" fill="none" xmlns="http://www.w3.org/2000/svg">
<path d="M2.27593 1616.72C3.58531 1624.3 11.924 1643.58 12.0422 1646.81C12.1898 1650.95 6.35176 1667.19 5.36726 1673.81C-3.69995 1734.51 14.8972 1800.86 29.4579 1859.3C13.1644 1921.74 -3.34559 1987.68 6.91287 2052.6C7.78907 2058.16 12.2193 2067.24 11.9732 2071.8C11.7566 2075.71 5.30816 2088.93 3.86095 2095.67C-11.6941 2168.37 33.6321 2248.8 12.2489 2318.2C11.3038 2321.26 5.45583 2331.81 5.45583 2332.7C5.45583 2333.56 11.8255 2344.09 13.0955 2347.87C36.2115 2416.54 1.50809 2508.69 32.6182 2577.96C6.71607 2642.96 27.292 2715.2 18.8155 2782.61C17.0336 2796.8 13.5779 2811.39 5.43612 2823.27C40.6319 2899.8 -13.7616 2982.87 4.44177 3062.79C5.82991 3068.9 11.9437 3081.18 12.2686 3084.39C12.5639 3087.29 8.99024 3094.36 8.23218 3098.42C-6.3876 3177.06 18.461 3257.74 40.5236 3332.52C20.2725 3398.55 -3.9756 3478.24 5.13099 3547.98C6.10564 3555.45 12.1701 3573.38 12.0225 3577.86C11.924 3581.11 6.54867 3591.09 5.37711 3595.48C-16.3212 3676.65 41.2423 3761.32 5.19 3839.01C41.0651 3914.77 -1.07131 4007.57 32.4803 4084.31C1.49823 4153.9 34.7544 4243.02 13.4401 4312.93C12.0224 4317.56 7.13932 4325.41 6.55846 4329H223L219.338 -121H5.39682C39.7262 -43.5083 -14.175 38.4481 4.41233 119.4C5.82016 125.545 11.0379 136.086 11.2348 140.769C11.4416 145.612 7.86786 151.419 6.94243 156.829C-6.08246 233.445 18.6875 314.885 40.5137 387.534C18.0574 459.845 -4.62538 537.068 6.96214 613.625C7.74974 618.816 12.1406 631.424 12.0323 634.447C11.9634 636.386 6.49944 647.722 5.37711 652.057C-12.2355 720.172 23.9152 790.296 17.1025 859.216C16.1672 868.662 5.3574 893.432 5.47554 895.331C5.54446 896.425 13.2137 910.128 14.6314 915.209C34.1441 984.895 2.46297 1071.42 32.1652 1140.62C1.28157 1208.95 34.7939 1301.55 13.3909 1369.46C11.9142 1374.15 5.53464 1382.99 5.25898 1384.61C4.91441 1386.68 10.4374 1395.81 11.5499 1399.52C32.5886 1469.64 -10.0106 1545.74 2.26607 1616.7L2.27593 1616.72Z" fill="white"/>
</svg>
