<svg width="32" height="32" viewBox="0 0 32 32" fill="none" xmlns="http://www.w3.org/2000/svg">
<path d="M5.41037 19.0092C5.71037 18.7092 6.00027 18.4292 6.30027 18.1192C4.71027 16.4792 3.87034 14.4992 3.88034 12.2092C3.88034 9.92922 4.72038 7.96922 6.29038 6.34922C5.98038 6.03922 5.70037 5.73922 5.41037 5.44922C1.70037 9.05922 1.63037 15.3092 5.41037 19.0192V19.0092Z" fill="#1A1A1A"/>
<path d="M0 11.5189C0.06 11.0689 0.119941 10.6189 0.189941 10.1689C0.549941 8.00889 1.43997 6.09889 2.83997 4.41889C4.36997 2.57889 6.28995 1.28889 8.56995 0.568888C10.5999 -0.0711116 12.66 -0.171111 14.74 0.268889C16.61 0.658889 18.29 1.44889 19.79 2.62889C21.48 3.95889 22.73 5.62889 23.54 7.61889C24.32 9.52889 24.58 11.5089 24.35 13.5589C24.15 15.3989 23.5599 17.1089 22.5599 18.6789C22.1799 19.2689 21.74 19.8189 21.35 20.3689C21.64 20.6689 21.93 20.9789 22.23 21.2789C23.44 20.3489 24.4799 20.7789 25.3099 21.6389C27.2199 23.6089 29.19 25.5389 31.13 27.4789C31.25 27.5989 31.38 27.7289 31.48 27.8689C31.99 28.5089 32.06 29.4689 31.54 30.0989C30.93 30.8389 30.34 31.6289 29.33 31.8789H28.77C28.34 31.7589 27.94 31.5689 27.61 31.2489C25.54 29.1689 23.46 27.0989 21.39 25.0189C21.06 24.6889 20.84 24.2989 20.78 23.8289C20.7 23.2089 20.9099 22.6889 21.2999 22.2289C20.9799 21.9189 20.68 21.6289 20.39 21.3489C19.86 21.7289 19.34 22.1389 18.77 22.5089C16.22 24.1389 13.43 24.7189 10.45 24.3089C8.11995 23.9789 6.05001 23.0289 4.26001 21.4889C2.23001 19.7289 0.909946 17.5389 0.319946 14.9189C0.179946 14.3189 0.11001 13.6989 0.0100098 13.0889V11.5289L0 11.5189ZM12.24 23.1489C18.26 23.1489 23.14 18.2489 23.15 12.2389C23.17 6.23889 18.24 1.30889 12.22 1.30889C6.19997 1.30889 1.28993 6.21889 1.29993 12.2389C1.34993 18.3189 6.16999 23.1489 12.24 23.1489ZM29.5599 30.3289C29.8199 30.0989 30.05 29.8489 30.29 29.6089C30.7 29.1889 30.7 28.8789 30.28 28.4589C28.37 26.5489 26.4699 24.6489 24.5599 22.7389C24.4099 22.5889 24.26 22.4289 24.1 22.2789C23.76 21.9689 23.42 21.9689 23.08 22.2789C22.81 22.5389 22.55 22.7989 22.29 23.0689C21.97 23.4089 21.96 23.7389 22.29 24.0889C22.56 24.3789 22.85 24.6489 23.12 24.9289C24.89 26.6989 26.67 28.4789 28.45 30.2489C28.61 30.4089 28.82 30.5089 29.03 30.6589C29.24 30.5289 29.4299 30.4589 29.5699 30.3289H29.5599Z" fill="#1A1A1A"/>
</svg>
