<svg width="439" height="25" viewBox="0 0 439 25" fill="none" xmlns="http://www.w3.org/2000/svg">
<path d="M439 24.9705C438.222 21.7593 437.08 18.5579 435.282 15.3467C435.363 15.5339 434.292 13.8101 434.12 13.6032C433.675 13.0417 433.231 12.4704 432.726 11.9385C432.554 11.7612 431.665 10.9535 431.655 10.924C431.21 10.5497 430.765 10.1852 430.291 9.85026C427.36 7.74229 425.623 6.82625 421.046 5.29946C417.833 4.22578 412.579 3.05358 407.759 2.33451C402.566 1.56619 399.05 1.19187 393.856 0.906209C382.803 0.275791 371.709 0.315195 360.645 0.600853C334.678 1.28052 308.701 1.81244 282.735 2.72852C247.19 3.9795 211.665 5.57526 176.069 5.78211C154.689 5.90032 133.613 7.36801 112.324 8.58945C88.9135 9.92909 65.0584 11.0028 41.6681 9.01301C21.0765 7.2498 6.20374 2.01931 0.131354 0C0.0404201 9.06226 0.0909342 17.1986 0 25H438.99V24.9803L439 24.9705Z" fill="white"/>
</svg>
