<svg width="61" height="66" viewBox="0 0 61 66" fill="none" xmlns="http://www.w3.org/2000/svg">
<path d="M60.6034 15.2604C60.2928 14.8704 59.3608 15.2004 58.9901 15.2904C58.6594 15.3604 58.3387 15.4604 58.008 15.5604C57.8277 15.5404 57.6372 15.5204 57.4669 15.5004C57.0761 15.4604 56.6752 15.4604 56.2844 15.5004C56.0739 15.5004 55.8635 15.5004 55.653 15.5204C55.1921 15.3504 54.7612 15.2604 54.2802 15.2804C54.2401 15.2704 54.2 15.2604 54.1499 15.2704C54.0998 15.2704 54.0498 15.2904 53.9997 15.3104C53.8895 15.3204 53.7691 15.3503 53.6489 15.3703C52.2359 15.6903 51.8652 17.0802 51.6848 18.3402C51.6447 18.5202 51.6248 18.7003 51.6147 18.8703V18.9103C51.0035 19.2403 50.2819 19.4003 49.5504 19.4303C49.35 19.4203 49.1597 19.4003 48.9993 19.3803C48.7889 19.3603 48.5884 19.0904 48.3879 19.0404C48.3178 18.9604 48.2177 18.6803 48.0974 18.6803H48.0372C47.7867 18.6803 47.5462 18.6805 47.2957 18.5704C46.494 18.0805 45.8126 17.5103 45.0611 16.9003C45.1012 16.8603 45.1513 16.9003 45.2114 16.9203C45.3016 16.8503 45.3918 16.8004 45.492 16.7304C46.1634 16.4804 46.8648 16.2704 47.4059 15.8004C48.5583 14.8104 48.3579 13.2104 48.1575 11.7904C48.1675 11.7604 48.1876 11.7203 48.1775 11.6703C48.1775 11.4903 48.2577 11.3303 48.3879 11.1803C49.0293 11.6603 50.0614 11.6405 50.7629 11.3205C51.2238 11.1105 51.5546 10.7803 51.8552 10.3803C52.0356 10.1403 52.2259 9.92033 52.4163 9.70033C53.4184 8.90033 54.17 8.1404 54.0999 6.7704C54.0398 5.4804 52.9675 3.76043 53.7091 2.55043C53.8894 2.24043 53.5388 1.97024 53.2582 2.10024C51.0636 3.08024 48.2376 3.81032 47.1454 5.94032C47.1053 5.92032 47.0652 5.91032 47.0151 5.94032C46.6243 6.16032 46.5141 6.71025 46.4239 7.11025C46.3838 7.32025 46.3638 7.53037 46.3538 7.74037C46.0131 8.68037 46.6343 10.1304 47.3057 10.7804C47.3057 10.8004 47.2957 10.8302 47.2957 10.8602C47.2957 10.8802 47.2857 10.8903 47.2756 10.9103L47.2957 10.9403C47.3057 11.0303 47.3158 11.1304 47.3258 11.2304C47.3058 12.7104 46.7546 13.9704 45.522 14.9904C44.8807 15.5304 44.1491 15.9602 43.3976 16.3402C43.3775 16.3402 43.3576 16.3602 43.3275 16.3602C43.1872 16.4102 43.0469 16.4704 42.9166 16.5304C42.7062 16.5904 42.4957 16.6403 42.2652 16.6703C41.8844 16.7203 41.5538 16.6704 41.2732 16.5504C40.9926 15.6804 40.6719 14.8104 40.5015 14.0404C40.5517 13.9804 40.5818 13.9004 40.5818 13.8004C40.5918 12.4304 41.4236 11.1304 41.8545 9.81044C41.8645 9.78044 41.8645 9.76036 41.8645 9.73036V9.68031C41.8645 9.17031 42.125 8.66026 42.0548 8.13027C42.7262 8.07026 43.4878 7.24036 43.7583 6.73036C43.8886 6.48036 43.9588 6.22033 43.9889 5.95033C44.0089 5.89033 44.0389 5.84041 44.049 5.78041C44.1592 5.40041 44.1192 5.0704 43.9688 4.7704C43.9187 4.0704 43.5479 3.41039 43.2673 2.76039C43.2473 2.30039 43.097 1.86031 42.9467 1.43031C43.0369 1.26031 43.0069 1.09026 42.9868 0.870255C42.9868 0.820255 42.9567 0.780392 42.9166 0.760392C42.8966 0.590392 42.8665 0.410363 42.8164 0.230363C42.7262 -0.109637 42.155 -0.0595788 42.1751 0.290421C41.9446 0.610421 41.7542 0.960441 41.5738 1.31044C41.4636 1.41044 41.3634 1.50024 41.2732 1.60024C40.8323 2.11024 40.5116 2.6903 40.0206 3.1703C39.3392 3.8303 38.788 4.62042 38.6477 5.54042C38.0565 6.92042 39.1789 8.18045 40.5918 8.07045C40.682 8.67045 40.7621 9.26026 40.5617 9.87026C40.2811 10.7403 40.0807 12.0603 39.3192 12.6703C39.2791 12.8603 39.1889 13.0203 39.0987 13.1803C39.0887 13.2203 39.0686 13.2604 39.0486 13.3104C38.9383 12.9704 38.758 12.6502 38.5676 12.3502C38.5275 11.3802 38.9284 10.2104 37.9764 9.51039C37.5054 9.17039 36.9843 9.30027 36.4733 9.38027C35.5113 8.74026 34.7095 8.08036 34.1383 6.98036C34.0381 6.79036 33.7174 6.87023 33.7275 7.09023C33.7675 7.55023 33.9179 7.92022 34.1183 8.33022C34.5191 9.17022 34.2385 9.80026 33.978 10.6203C33.7575 11.3303 33.8378 12.2502 34.3188 12.8402C35.3309 14.0702 37.0344 13.5704 37.9664 12.5204C37.9664 12.5204 37.9664 12.5204 37.9664 12.5104C38.0566 12.6404 38.1367 12.7703 38.2169 12.9003C38.3472 13.1103 38.5676 13.4204 38.7179 13.7504C38.7179 13.8204 38.7379 13.8803 38.7379 13.9503C38.5675 14.2103 38.3771 14.4502 38.1166 14.6102H37.9863C37.8961 15.0802 38.2369 15.4203 36.4332 15.6603C36.4332 15.7603 36.0924 15.8203 35.8719 15.8903C35.7216 15.8403 35.4611 15.7804 35.3909 15.7304C35.2406 15.7404 34.8699 15.6804 34.7496 15.5304C34.6895 15.4504 34.5092 15.3805 34.429 15.3205C34.3388 15.2705 34.1885 15.2203 34.0983 15.1703C33.4971 14.9503 32.5852 15.0204 32.0942 15.0304C31.6633 15.0304 31.2123 15.0702 30.7814 15.1002C30.4206 15.3802 30.0699 15.7003 29.6791 15.9503C29.0278 16.3603 28.4264 16.5804 28.3463 17.2804C28.0958 17.5804 27.8654 17.8904 27.685 18.2404C27.6249 18.3604 27.675 18.5304 27.8153 18.5604C28.667 18.7504 29.5288 18.7103 30.3805 18.8803C30.9818 18.9903 31.4929 19.2604 32.0541 19.2804C32.1442 19.3304 32.2344 19.3803 32.3246 19.4303C32.4449 19.4303 32.5651 19.4203 32.6954 19.4003C33.3668 19.2203 34.0883 18.7404 34.4691 18.4704C34.9 18.1704 35.1305 17.7103 35.4612 17.3803C35.4612 17.3403 35.4711 17.3104 35.4811 17.2704C35.7517 17.1604 36.0022 17.0202 36.2327 16.8402C36.2327 16.8402 36.2427 16.8305 36.2527 16.8204C36.3429 16.8004 36.4331 16.7904 36.5333 16.7804C36.834 16.6504 37.1146 16.5002 37.4152 16.3502C37.5454 16.2902 37.6757 16.2303 37.806 16.1603C38.0265 16.0103 38.2569 15.8604 38.4974 15.7404C38.5375 15.8404 38.5576 15.9404 38.5776 16.0504C38.5776 16.0704 38.5877 16.0902 38.6077 16.1102C38.8382 16.6602 39.0486 17.2204 39.1588 17.7904C39.4895 18.7504 39.4193 19.8504 39.0085 20.5104C38.4373 21.4104 36.8741 21.8802 35.4612 22.5902C35.5413 21.9102 35.6114 21.2304 35.7617 20.5604C35.8619 20.1804 35.9923 19.8103 36.2127 19.4603C36.323 19.2803 36.0624 19.0704 35.9121 19.2304C35.7517 19.4004 35.6114 19.5904 35.4811 19.7804C35.441 19.8104 35.401 19.8503 35.3809 19.9203C35.3809 19.9303 35.3809 19.9403 35.3709 19.9603C34.5692 21.1903 34.1585 22.6203 33.467 23.9203C32.6754 24.6003 32.1042 25.3204 31.7134 26.0104C31.5631 26.4104 31.6732 26.9503 31.2423 27.1903C30.5709 24.9403 27.6449 24.5604 25.5606 23.7804C24.5084 22.5904 24.1375 20.7603 24.4682 19.1403C24.6987 18.9203 24.9393 18.7104 25.1697 18.5404C25.31 18.3504 25.4703 18.1604 25.6307 18.0304C25.6808 17.9404 25.7509 17.8504 25.8511 17.7704C25.8912 17.7304 25.9313 17.7103 25.9814 17.6803C25.9413 17.6503 25.9413 17.6004 25.9814 17.5604C26.0515 17.4004 26.1217 17.2502 26.1919 17.0902C26.5326 16.2102 26.6027 15.2702 26.763 14.3502C27.0637 13.6002 27.4745 12.7002 27.675 11.8302C28.4265 11.6502 29.1981 11.4702 29.6892 10.8302C30.0098 10.4102 29.9998 9.84024 29.9096 9.35024C29.8194 8.88024 29.619 8.45035 29.5689 7.97035C29.5388 7.63035 29.629 7.28031 29.6691 6.93031C29.7593 6.58031 29.599 6.23034 29.3184 5.96034C29.0879 5.64034 28.667 5.40031 28.3663 5.18031C28.3363 5.16031 28.3163 5.14025 28.2962 5.12025C28.2261 5.05025 28.146 4.98029 28.0658 4.91029C27.9656 4.80029 27.8653 4.68042 27.7751 4.54042C27.7451 4.49042 27.7251 4.45029 27.695 4.41029C27.6549 4.28029 27.6148 4.15041 27.5447 4.03041C27.5246 3.84041 27.4244 3.70026 27.2841 3.62026C27.1839 3.47026 27.0937 3.30027 27.0236 3.13026C26.9635 2.95026 26.723 2.95026 26.6528 3.13026C26.5626 3.36027 26.5125 3.60023 26.4824 3.84023C26.4524 3.91023 26.4424 3.98045 26.4424 4.07045C26.4725 4.79045 25.8912 5.47043 25.5205 6.05043C25.0896 6.72043 24.6887 7.42036 24.6186 8.23036C24.4682 9.71036 25.1596 10.8203 26.4624 11.4203C26.4924 11.4803 26.5326 11.5402 26.5526 11.6002C26.0816 12.6802 25.8311 13.8603 25.3601 14.9503C24.8891 16.0303 24.1877 16.9404 23.376 17.7504C23.2658 16.6904 22.6645 15.7503 22.0132 14.9003C21.6123 14.3603 21.422 13.7402 21.3118 13.0902C21.3118 12.6702 21.4119 12.2805 21.6625 11.8205C21.9931 11.2105 22.4541 10.6902 22.8149 10.1002C22.9953 8.65024 22.6745 7.13029 21.6023 6.16029C20.8607 5.48029 19.9689 4.96037 19.2574 4.24037C18.9167 3.90037 18.586 3.51023 18.3756 3.09023C18.3756 3.07023 18.3555 3.06042 18.3555 3.04042C18.3455 2.97042 18.3155 2.92027 18.2854 2.89027C18.2854 2.87027 18.2654 2.84045 18.2553 2.82045C18.2553 2.83045 18.2453 2.84025 18.2453 2.86025C18.105 2.76025 17.8745 2.82043 17.8645 3.05043C17.8044 4.13043 17.1731 5.08045 16.6621 6.07045C15.7402 7.40045 15.3593 9.1403 16.3514 10.4203C16.4917 10.7803 16.662 11.1304 16.8223 11.4904C16.8624 11.5704 16.8825 11.6404 16.8725 11.7204C16.8825 11.7604 16.9126 11.8002 16.9226 11.8402C17.093 11.9502 17.2633 12.0503 17.4337 12.1503C18.1552 12.5903 19.057 12.6002 19.7484 13.0802C20.2495 13.4202 20.2294 13.9804 20.3697 14.5004C20.48 14.6904 20.5601 14.9002 20.6403 15.0902C20.6503 15.1302 20.6704 15.1904 20.6905 15.2504C20.7606 15.3804 20.8207 15.5003 20.8708 15.6303C20.8908 15.6303 20.9209 15.6403 20.941 15.6403C21.0212 15.7603 21.1112 15.8804 21.2014 16.0004L21.3118 16.1102C21.3719 16.1602 21.4019 16.2204 21.422 16.2904C21.5322 16.3604 21.5923 16.4802 21.6023 16.6002C21.943 17.1502 22.0632 17.7404 22.1033 18.3204C22.1033 18.3505 21.9431 18.3703 21.9431 18.4003V18.4303C21.9431 19.0303 22.0131 19.6303 21.8729 20.2003C21.7326 20.7803 21.5622 21.0103 21.1614 21.1603C20.6403 21.0403 20.0391 21.1103 19.3877 21.2003C19.3276 21.1003 19.2474 21.0404 19.087 21.0504C18.3956 21.0904 16.9927 20.6904 16.2612 20.0204C16.2813 19.9504 16.3113 19.8902 16.3413 19.8302C16.2912 19.6902 16.2913 19.5302 16.3714 19.3602C16.6721 18.7102 16.672 17.6403 16.7121 16.8903C16.7422 16.3803 16.7622 15.8803 16.7522 15.3703C16.7522 15.2203 16.7522 15.0603 16.7322 14.9103C16.7021 14.8703 16.6922 14.8404 16.6821 14.8104C15.8103 13.9204 14.9685 12.9203 13.9664 12.1903C13.3451 11.7403 11.9823 11.5503 11.5214 10.8703C11.4813 10.6803 11.4211 10.4904 11.351 10.3004C11.2007 9.91043 10.5393 9.93029 10.5693 10.4103C10.5894 10.7003 10.6596 10.9503 10.7698 11.1703C11.321 13.6903 10.0082 16.6602 11.6917 18.8602C12.3731 19.7602 14.1768 21.3003 15.5898 21.1703C16.0908 21.7603 17.0028 22.1204 17.9046 22.2604C17.9948 22.3104 18.075 22.3603 18.1652 22.4103C18.6262 22.4603 19.097 22.4804 19.578 22.4804C19.6983 22.4804 19.7885 22.5104 19.8687 22.5504C20.3497 22.6504 20.7906 22.8804 21.0812 23.2504C21.7826 23.6504 22.404 24.2602 23.1255 24.5902C23.5564 24.7802 24.5284 25.0604 24.9092 25.5204C24.9894 25.5804 25.0395 25.6804 25.0495 25.7904V25.8004C25.0595 25.8604 25.0595 25.9204 25.0495 25.9704C25.0595 26.1304 24.9793 26.3002 24.7789 26.3602C24.0374 26.5802 23.2658 26.8803 22.6746 27.4103C22.2337 27.8003 21.8328 28.2503 21.3718 28.6303C21.2816 28.7303 21.1914 28.8303 21.1012 28.9303C20.8708 28.7503 20.6303 28.5803 20.3898 28.4203C20.3898 28.4103 20.3898 28.4003 20.3898 28.3903C20.47 27.1603 20.7505 25.6903 19.5881 24.8803C18.9467 24.4303 18.0149 24.5202 17.2934 24.6002C16.2312 24.7202 15.4796 24.6904 14.7481 23.8004C14.5977 23.6204 14.247 23.7203 14.1969 23.9503C13.9163 25.3403 14.5176 26.6903 15.5197 27.6303C16.2412 28.6903 17.4938 29.3903 18.6361 28.8903C18.7865 28.8903 18.9267 28.8802 19.077 28.8602C19.2874 28.9802 19.4879 29.1304 19.6683 29.2504C19.7986 29.3304 19.9289 29.4204 20.0591 29.5104C20.0992 29.5504 20.1393 29.5802 20.1894 29.6002C20.2295 29.6302 20.2696 29.6603 20.3197 29.7003C19.5581 30.3503 18.6662 30.8202 17.5038 30.8502C16.7823 30.8602 15.9205 30.6203 15.1389 30.1603C15.0788 30.1603 15.0085 30.1402 14.9384 30.1102C14.6277 29.9702 14.287 29.9103 13.9363 29.9003C13.8261 29.8303 13.736 29.7303 13.6458 29.6403C13.4554 29.2503 13.2148 28.8604 12.9743 28.4904C12.824 27.1904 12.9744 25.6803 12.1527 24.6603C11.5815 23.9503 10.88 24.0005 10.0583 23.8204C9.26661 23.6504 8.57526 22.8604 8.02412 22.3104C7.96399 22.2504 7.90381 22.2404 7.84369 22.2504C7.78356 22.2004 7.71347 22.1703 7.64332 22.1403C7.55313 21.9803 7.28254 21.9503 7.24246 22.1703C7.17232 22.5603 7.21238 22.9602 7.2224 23.3502C7.23242 24.1102 6.97194 24.7003 6.6613 25.3703C6.30055 26.1503 6.56098 26.8002 7.17225 27.3502C8.44489 28.5002 10.3089 29.3704 11.9222 28.5304C12.1728 29.1304 12.2729 29.8703 12.4733 30.4503C12.1827 30.6403 11.9222 30.8803 11.6717 31.1303C11.331 31.4903 11.0704 31.8104 10.7798 32.0404C10.7598 32.0204 10.7497 32.0004 10.7397 31.9804C10.6095 32.0904 10.4491 32.1703 10.2387 32.1803C10.0984 32.1903 9.98811 32.0803 9.93801 31.9503C9.73759 31.4503 9.55721 30.9503 9.42693 30.4203C9.39687 30.3303 9.42696 30.2503 9.45703 30.1903C9.38688 30.0203 9.29678 29.8704 9.16651 29.7204C8.53519 28.9604 7.44291 28.8103 6.52099 28.9003C3.80535 29.1703 2.32217 31.7804 0.167695 33.0304C-0.142951 33.2104 0.0174166 33.6103 0.328062 33.6503C1.46042 33.7703 2.61279 34.1904 3.56477 34.8204C4.31633 35.3204 4.93768 35.8603 5.87964 35.9303C7.08214 36.0003 7.88383 35.1304 8.65543 34.2904C8.75564 34.0004 8.89585 33.7304 9.0662 33.5104C9.71755 33.5104 10.399 33.4704 10.9802 33.2404C10.9802 33.4104 10.9802 33.5804 10.9301 33.7404C10.9301 33.7704 10.9301 33.7905 10.9301 33.8204C10.9301 33.9204 10.9302 34.0203 10.9101 34.1203C10.6496 34.6403 10.3189 35.1503 9.99819 35.6403C9.86792 35.6603 9.74762 35.7503 9.69752 35.9203C9.65743 36.0303 9.61735 36.1304 9.57727 36.2404C9.37685 36.6404 9.89795 37.0904 10.2186 36.7304C10.7798 36.1204 11.3109 35.4804 11.7719 34.7804C12.2028 34.1104 12.293 33.3204 12.5235 32.5704C12.9143 31.3004 13.9364 31.0403 14.9885 31.1903C16.0908 31.8203 17.2733 32.2903 18.6662 32.4203C18.6963 32.4703 18.7263 32.5204 18.7464 32.5604C18.7263 32.6504 18.7063 32.7502 18.6662 32.8302C18.3857 33.3702 17.9848 33.9102 17.5038 34.3402C17.2733 34.5302 17.0128 34.7103 16.7522 34.8703C16.6119 34.9503 16.4616 35.0104 16.3213 35.0704C16.1609 35.1704 15.9907 35.2602 15.8003 35.3302C15.8003 35.3302 15.8102 35.3402 15.8202 35.3502C15.72 35.3802 15.6099 35.4204 15.5096 35.4704C14.9785 35.9804 14.3372 36.4304 13.6658 36.7504C13.6258 36.7904 13.5656 36.8302 13.5155 36.8602C13.1648 37.1102 12.784 37.2404 12.3832 37.3204C11.6817 37.1004 10.9 36.9504 10.2287 37.2504C9.83784 37.4204 9.55724 37.7004 9.33678 38.0204C8.96601 38.2504 8.64541 38.5704 8.40491 39.0004C7.87381 39.9604 7.90381 41.2304 7.96393 42.2904C8.03408 43.6204 8.33476 44.9304 8.6454 46.2204C8.72557 46.5504 9.20655 46.6105 9.3769 46.3204C9.46709 46.1604 9.56734 46.0002 9.66755 45.8402C9.71765 45.8202 9.76765 45.7804 9.80773 45.7204C11.6415 43.5104 15.8002 42.5603 14.728 38.9603V38.9003C14.4374 38.7103 14.227 38.4402 14.1769 38.1002C15.3594 37.3402 16.5919 36.6504 17.7142 35.7904C18.4758 35.2104 19.3375 34.5103 19.8286 33.6403C19.8286 33.6303 19.8386 33.6202 19.8587 33.6102C19.9589 33.4202 20.039 33.2204 20.1092 33.0204C20.5701 32.1604 21.3318 31.2603 22.2737 30.4603C22.2938 30.3603 22.3539 30.2703 22.4441 30.1803C23.4662 29.2703 24.9593 28.1604 26.3923 28.2404C27.1138 28.2804 27.685 28.8104 27.7952 29.5204C27.8854 30.1404 27.6448 30.7403 27.244 31.2103C27.0636 31.5003 26.723 31.7303 26.3121 31.9103C26.2921 31.9303 26.272 31.9504 26.262 31.9704C26.2319 31.9804 26.2019 31.9904 26.1718 32.0104C26.1518 32.0104 26.1216 32.0104 26.0916 32.0104C25.8511 32.0704 25.6106 32.1003 25.3701 32.1303C25.0695 32.1803 24.7688 32.2003 24.4682 32.2103C23.8569 32.2603 23.2657 32.3202 22.7146 32.5902C22.6544 32.6102 22.5944 32.6303 22.5343 32.6603C22.2236 32.8003 22.0131 32.9904 21.8327 33.2304C20.8808 34.1704 20.1994 35.3902 19.2675 36.3602C19.1171 36.4302 18.9669 36.5303 18.8166 36.6903C18.6362 36.8903 18.7363 37.1504 18.9668 37.2504C18.9868 37.2504 19.0069 37.2604 19.027 37.2704C19.0971 37.3404 19.2073 37.3903 19.3376 37.3703C19.528 37.3303 19.7184 37.3204 19.9188 37.3104C19.9589 37.3304 20.0091 37.3502 20.0692 37.3402C20.1794 37.3402 20.2996 37.3302 20.4099 37.3302C20.5602 37.3302 20.7104 37.3402 20.8607 37.3402C20.9008 37.3402 20.9309 37.3405 20.971 37.3204C22.1033 37.3405 23.2257 37.4503 24.328 37.1703C24.4082 37.1503 24.4683 37.1004 24.5083 37.0504C24.849 36.9804 25.1697 36.8603 25.4603 36.6503C26.6327 35.8203 26.5927 34.0302 27.194 32.8402C27.204 32.7802 27.3542 32.7303 27.3542 32.6703C27.3542 31.8303 29.0577 30.7604 29.9696 31.5104C30.5108 31.9504 30.591 32.7803 30.7113 33.4203C30.8115 33.9303 30.8615 34.4403 30.8615 34.9503C30.9918 35.4003 31.0319 35.8702 31.0219 36.3602C31.0119 36.9802 30.8716 37.6003 30.6812 38.2103C30.4407 38.6103 30.1701 39.0103 29.9096 39.3903C29.4286 40.1103 28.7973 40.7403 28.166 41.3703C26.3622 42.4903 24.7288 43.9003 23.9372 45.9203C23.5264 46.9603 23.5263 47.9004 23.7568 48.8004C23.7468 48.8804 23.7568 48.9804 23.7568 49.0704V49.4603C23.7568 50.4303 24.3881 51.3805 24.7388 52.3204C24.8089 52.4404 24.8891 52.5603 24.9793 52.6703C25.2098 53.2003 25.4703 53.7304 25.7409 54.2504C26.4023 56.0704 26.8532 57.9403 26.4824 59.9203C26.1417 61.7303 25.5505 63.4704 24.4883 64.9804C24.348 65.1804 24.1877 65.5504 24.0374 65.5504H36.9943C37.7659 62.9204 37.1046 59.6003 36.1927 57.1503C35.2607 54.6303 33.7676 53.1203 32.044 51.4603C31.7735 51.1603 31.4928 50.8604 31.2423 50.5204C30.4507 49.4304 29.7091 48.2302 29.629 46.8602C29.4887 44.3902 31.4628 42.1503 32.6452 40.1603C32.7455 39.9903 32.7856 39.8403 32.7956 39.6803C32.9359 39.4303 33.0762 39.1903 33.2065 38.9603C33.8679 37.8403 34.6394 36.6003 35.9421 36.1803C36.4131 36.0303 36.8941 35.9904 37.3851 36.0104C37.7458 35.9604 38.1266 35.9704 38.4974 36.0104C38.5375 35.9904 38.5775 35.9703 38.6176 35.9603C39.8101 36.5803 40.8623 37.4603 41.7742 38.4603C41.7742 38.5803 41.8444 38.6804 41.9847 38.7504C42.0148 38.7704 42.0549 38.7904 42.0849 38.8104C42.3956 39.1704 42.6962 39.5403 42.9668 39.9303C42.9668 39.9903 42.9768 40.0603 42.9768 40.1203C42.0649 41.2203 42.125 43.3103 43.1071 44.3803C43.1572 44.4903 43.2072 44.6003 43.2573 44.7103C44.0088 46.2203 45.7024 46.9504 46.6945 48.2704C46.945 48.6004 47.4961 48.3103 47.2656 47.9403C46.7245 47.0703 47.0852 45.7903 47.2656 44.8703C47.476 43.8403 47.5462 42.8702 47.2957 41.8502C47.1354 41.2102 46.8047 40.6904 46.2736 40.3004C45.542 39.7504 44.55 39.8002 43.7683 39.3502C43.7383 39.3302 43.7183 39.3204 43.6983 39.3104C43.5279 39.0604 43.3275 38.8102 43.1171 38.5902C43.0469 38.4602 42.9767 38.3304 42.8865 38.2204C42.7162 37.7004 42.4957 37.1904 42.1349 36.7504C41.7842 36.3204 41.3433 35.9903 40.8924 35.6703C40.8122 35.6103 40.702 35.5404 40.5818 35.4704C40.6119 35.4304 40.6318 35.3902 40.6519 35.3502C41.0327 35.3402 41.4235 35.3304 41.8143 35.3204C41.8644 35.3204 41.9146 35.3204 41.9546 35.3204C42.2753 35.3405 42.5859 35.3703 42.8965 35.4003C44.1491 35.5103 45.4118 35.6004 46.6544 35.7804C47.1654 35.9104 47.6765 36.0004 48.1876 36.0504C48.8489 36.2004 49.5003 36.3903 50.1416 36.6303C50.4723 36.8303 50.793 37.0504 51.0736 37.3104C50.6627 37.7604 50.332 38.4102 50.1817 38.8402C49.7709 40.0502 50.312 41.2602 50.813 42.3402C51.3141 43.4302 52.0056 44.0303 53.1279 44.4403C53.7492 44.6703 54.3404 44.9703 54.9617 45.2103C55.593 45.4603 56.2544 45.5702 56.8757 45.8302C57.0861 45.9102 57.2564 45.6404 57.1562 45.4704C56.9056 45.0604 56.6352 44.8104 56.7554 44.2204C56.8256 43.8804 56.9659 43.5804 57.016 43.2304C57.0961 42.6504 57.1863 42.0804 57.3065 41.5004C57.4869 40.6204 57.4067 39.3304 57.046 38.5004C56.6952 37.6904 55.9837 37.3303 55.152 37.1803C54.7311 37.1003 54.3104 37.0904 53.8895 37.0604C53.5087 37.0404 53.1679 36.9403 52.8172 36.9103C52.5466 36.7603 52.2861 36.6103 52.0656 36.4003C52.0356 36.3703 51.9955 36.3603 51.9554 36.3703C51.9554 36.3703 51.9554 36.3602 51.9454 36.3602C51.755 36.2902 51.6547 36.0803 51.6547 35.8703C51.6547 35.8403 51.6448 35.8204 51.6348 35.7904C51.6448 35.7904 51.6548 35.7904 51.6748 35.7804C51.7049 35.6404 51.8051 35.5003 51.9855 35.4403C52.9174 35.1103 54.0097 35.2704 54.9717 35.4904C55.3525 35.4104 55.7332 35.2504 56.0639 35.0604C56.8756 34.6004 57.3967 33.6203 57.7074 32.6303C58.2886 31.8303 58.7295 30.9303 59.3207 30.1403C58.99 29.9603 58.3788 30.0102 57.8677 30.0902C57.3867 30.1102 56.9057 30.1905 56.4347 30.3204C55.8535 30.3605 55.2322 30.3504 54.671 30.4704C54.4806 30.5804 54.3003 30.7102 54.13 30.8402C52.8974 30.8902 51.8352 31.8403 51.8753 33.1403C51.8152 33.5103 51.8351 33.8904 51.9053 34.2604L51.8352 34.4704C51.3341 34.8504 50.773 35.1204 50.1016 35.2804C49.9112 35.3204 49.7207 35.3402 49.5203 35.3502C48.899 35.2102 48.2777 34.9804 47.6564 34.8004C47.0051 34.6004 46.3437 34.4602 45.6623 34.3502C45.2414 34.2802 44.7906 34.1402 44.3597 34.0802C44.3597 34.0802 44.3496 34.0802 44.3396 34.0802C44.9609 33.2102 45.3416 32.0504 46.023 31.2604C46.0431 31.2104 46.6243 31.1502 46.6343 31.1002C46.6343 31.0802 47.2156 31.0604 47.2156 31.0504V31.0204C47.2156 30.8104 47.1153 30.6204 47.5161 30.5304C47.6364 30.5004 47.4761 30.5004 47.6064 30.5104C47.8469 30.7804 47.9271 31.0804 48.2478 31.2704C48.6586 31.5104 49.1195 31.4104 49.5303 31.2704C49.8209 31.1804 50.0615 31.0402 50.332 30.8502C51.4243 30.5802 52.2259 29.8903 53.2781 29.4503C53.3883 29.4003 53.3883 29.2403 53.2781 29.1903C51.6547 28.4803 49.9413 26.5602 47.9872 27.1002C47.2557 27.3002 46.6644 28.1004 46.464 28.8004C46.4039 29.0104 46.3437 29.2003 46.2736 29.3903C46.1734 29.9503 45.6122 30.2803 45.1713 30.6603C45.1412 30.6903 45.1012 30.7003 45.0711 30.7003C44.8907 30.9203 44.7103 31.1402 44.54 31.3602C44.54 31.3602 44.54 31.3602 44.5299 31.3502C44.4097 30.9802 44.2494 30.6404 44.0891 30.2904C44.0891 30.2804 44.0891 30.2604 44.0891 30.2504C44.029 30.1804 43.9788 30.1004 43.9287 30.0104C43.8385 29.8804 43.8285 29.6704 43.9287 29.5404C44.2093 29.1204 44.2694 28.6804 44.2794 28.2204C44.2594 28.1604 44.2294 28.1104 44.2093 28.0604C44.059 27.7604 43.9688 27.5703 43.6882 27.3903C43.588 27.3303 43.6081 27.2603 43.6081 27.1903C43.6081 27.0603 43.2473 26.9502 43.137 26.8502C42.9266 26.6502 42.4356 26.5204 42.0348 26.4704C41.9646 26.4504 41.8444 26.4403 41.7742 26.4303C41.4936 26.3303 41.163 26.2704 40.8223 26.2704C40.5016 26.2704 40.1509 26.2803 39.8403 26.3703C39.3893 26.4103 38.8983 26.5304 38.5576 26.8104C38.5275 26.8304 38.5074 26.8903 38.5375 26.9203C38.6878 27.0803 38.8682 27.2103 39.0085 27.3703C39.0285 27.4503 39.0586 27.5402 39.0887 27.6102C39.1689 27.8102 39.279 27.9903 39.4093 28.1603C40.1208 29.6703 41.5939 31.4103 43.077 30.3903C43.107 30.3903 43.1471 30.4003 43.1772 30.4003C43.3675 30.7703 43.5179 31.1604 43.588 31.5404C43.6081 32.0804 43.5279 32.6004 43.1772 33.0604C43.1571 33.0904 43.137 33.1203 43.127 33.1503C43.0168 33.2303 42.8965 33.3103 42.7763 33.3803C42.7563 33.3803 42.7262 33.3703 42.6962 33.3703C40.5016 33.3003 38.2971 32.8404 36.1025 33.0204C35.371 33.0804 34.4992 33.2904 33.6975 33.2504C33.5772 32.3004 33.1463 31.3903 33.1463 30.4303C33.1463 30.0303 33.1663 29.6003 33.2364 29.1803C33.2565 28.6603 33.3668 28.1404 33.6574 27.7504C33.8177 27.4404 34.008 27.2004 34.2285 27.0204C35.6214 25.0204 39.9103 24.2502 41.1228 22.0902C41.4936 21.4402 41.4937 20.7303 41.6039 20.1703C41.8545 19.9103 42.125 19.6704 42.4356 19.4704C43.2373 18.9404 44.2894 18.9103 45.2514 19.1603C45.6322 19.4103 46.003 19.6902 46.4139 19.8502C47.5462 20.3102 48.9091 20.5303 50.1817 20.3703C50.1817 20.4603 50.2118 20.5503 50.2919 20.6403C50.5324 20.8903 50.7028 21.1804 50.8431 21.5004C50.7028 21.5404 50.5424 21.5803 50.4021 21.6403C50.4021 21.6603 50.4021 21.6803 50.4021 21.7003C50.352 21.7303 50.3019 21.7704 50.2618 21.8104C50.0013 22.0504 49.8611 22.3103 49.7509 22.6303C49.5004 23.3703 49.9413 24.1604 50.3621 24.7304C50.9033 25.4704 51.4343 25.9902 52.2961 26.3402C53.4585 26.8202 54.5307 27.2403 55.5629 27.9603C55.7733 28.1103 56.0138 27.8303 55.9036 27.6303C55.3624 26.6603 55.8736 25.8602 55.9537 24.8602C56.0038 24.1202 55.9337 23.2004 55.6231 22.5204C55.122 21.4204 53.7992 21.5003 52.8072 21.1603C52.3362 21.1603 51.9755 20.8703 51.5746 20.6203C51.4343 20.5303 51.5044 20.4503 51.6547 20.4503H51.7149C51.7149 20.4503 51.6648 20.3004 51.6447 20.2904C51.8251 20.2604 51.9955 20.1603 52.1658 20.1203C52.3362 20.1603 52.5166 20.1603 52.6769 20.1903C53.0477 20.3003 53.4285 20.3703 53.8092 20.4103C54.7913 20.7103 55.7232 20.6504 56.7153 20.0404C57.3967 19.6204 57.9879 18.9904 58.3186 18.2504C58.3587 18.2104 58.3988 18.1602 58.4389 18.1102C58.5892 17.9402 58.7094 17.7304 58.8096 17.5304C59.0702 17.3204 59.3207 17.1103 59.5612 16.8703C59.8718 16.5703 60.423 16.0704 60.4932 15.5604C60.5834 15.4904 60.6434 15.3404 60.5432 15.2204" fill="black"/>
</svg>
